<?xml version="1.0" standalone="no"?>
<!DOCTYPE svg PUBLIC "-//W3C//DTD SVG 20010904//EN"
 "http://www.w3.org/TR/2001/REC-SVG-20010904/DTD/svg10.dtd">
<svg version="1.0" xmlns="http://www.w3.org/2000/svg"
 width="300.000000pt" height="240.000000pt" viewBox="0 0 300.000000 240.000000"
 preserveAspectRatio="xMidYMid meet">
<metadata>
Created by potrace 1.10, written by Peter Selinger 2001-2011
</metadata>
<g transform="translate(0.000000,240.000000) scale(0.100000,-0.100000)"
fill="#000000" stroke="none">
<path d="M1840 2063 c-64 -23 -142 -104 -165 -173 -56 -164 22 -320 182 -366
73 -21 181 -15 246 14 l47 21 0 105 c0 122 4 136 36 136 13 0 24 5 24 10 0 6
-42 10 -105 10 -63 0 -105 -4 -105 -10 0 -5 10 -10 23 -10 41 0 47 -17 47
-130 l0 -107 -39 -11 c-56 -17 -117 -15 -159 7 -49 25 -66 45 -98 115 -24 52
-26 67 -22 146 3 76 8 95 34 136 79 128 261 126 324 -4 14 -28 28 -52 32 -52
7 0 1 112 -8 158 -5 27 -20 29 -27 2 -5 -19 -5 -19 -61 0 -66 24 -144 24 -206
3z"/>
<path d="M2450 2071 c-84 -27 -151 -90 -181 -171 -45 -118 -6 -264 90 -337
113 -87 282 -62 364 54 44 61 55 97 56 173 1 84 -12 129 -52 182 -49 65 -113
99 -189 104 -35 2 -74 0 -88 -5z m140 -43 c65 -33 93 -93 98 -209 9 -181 -51
-279 -170 -279 -67 0 -108 28 -143 95 -27 53 -30 68 -30 154 0 106 13 155 53
203 51 60 119 73 192 36z"/>
<path d="M210 2060 c0 -5 13 -10 28 -10 51 0 52 -6 52 -255 0 -249 -1 -255
-52 -255 -15 0 -28 -4 -28 -10 0 -13 310 -13 364 0 74 17 131 77 131 139 0 57
-22 88 -79 116 -28 13 -43 24 -32 25 10 0 33 15 52 34 71 71 31 178 -79 211
-59 18 -357 22 -357 5z m337 -46 c66 -49 67 -129 4 -171 -28 -19 -48 -23 -107
-23 l-74 0 0 111 0 111 74 -4 c56 -2 82 -9 103 -24z m-11 -243 c23 -10 49 -29
58 -42 18 -27 21 -91 5 -121 -23 -42 -135 -71 -206 -52 -22 6 -23 11 -23 120
l0 114 63 0 c39 0 77 -7 103 -19z"/>
<path d="M770 2060 c0 -5 13 -10 28 -10 15 0 33 -5 40 -12 16 -16 17 -450 2
-479 -7 -12 -21 -19 -40 -19 -17 0 -30 -4 -30 -10 0 -6 47 -10 120 -10 73 0
120 4 120 10 0 6 -9 10 -21 10 -11 0 -29 5 -40 10 -18 10 -19 24 -19 244 0
190 3 236 14 245 24 20 115 16 145 -7 l26 -19 3 -223 c2 -156 -1 -227 -9 -236
-6 -8 -24 -14 -40 -14 -16 0 -29 -4 -29 -10 0 -6 40 -10 100 -10 60 0 100 4
100 10 0 6 -13 10 -29 10 -49 0 -52 12 -49 218 l3 190 178 -219 c99 -120 182
-219 185 -219 4 0 6 102 4 227 -2 126 1 246 5 268 8 35 13 40 38 43 17 2 34 8
40 13 5 5 -30 9 -93 9 -61 0 -102 -4 -102 -10 0 -5 13 -10 30 -10 46 0 51 -20
48 -214 l-3 -174 -165 204 -165 204 -197 0 c-125 0 -198 -4 -198 -10z"/>
<path d="M62 1048 l3 -23 357 -3 358 -2 2 -508 c3 -499 3 -507 23 -507 20 0
20 8 23 508 l2 507 630 0 630 0 0 -510 0 -510 25 0 25 0 0 510 0 510 388 2
c379 3 387 3 387 23 0 20 -8 20 -1428 23 l-1428 2 3 -22z"/>
</g>
</svg>
